HIERARCHY
ROOT Hips
{
    OFFSET 0.000000 0.000000 0.000000
    CHANNELS 6 Xposition Yposition Zposition Zrotation Xrotation Yrotation
    JOINT Spine
    {
        OFFSET -0.000000 7.883683 0.000000
        CHANNELS 3 Zrotation Xrotation Yrotation
        JOINT Spine1
        {
            OFFSET -0.000000 24.776327 0.000000
            CHANNELS 3 Zrotation Xrotation Yrotation
            JOINT Neck
            {
                OFFSET -0.000000 24.674574 2.243143
                CHANNELS 3 Zrotation Xrotation Yrotation
                JOINT Head
                {
                    OFFSET -0.000000 13.459947 -1.922849
                    CHANNELS 3 Zrotation Xrotation Yrotation
                    End Site
                    {
                        OFFSET -0.000000 24.035618 0.000000
                    }
                }
            }
            JOINT LeftShoulder
            {
                OFFSET 3.810223 22.323311 -0.325006
                CHANNELS 3 Zrotation Xrotation Yrotation
                JOINT LeftArm
                {
                    OFFSET 12.560579 0.000000 0.000000
                    CHANNELS 3 Zrotation Xrotation Yrotation
                    JOINT LeftForeArm
                    {
                        OFFSET 28.806782 0.000000 0.000000
                        CHANNELS 3 Zrotation Xrotation Yrotation
                        JOINT LeftHand
                        {
                            OFFSET 23.813900 0.000000 0.000000
                            CHANNELS 3 Zrotation Xrotation Yrotation
                            End Site
                            {
                                OFFSET 14.421371 0.000000 0.000000
                            }
                        }
                    }
                }
            }
            JOINT RightShoulder
            {
                OFFSET -3.823061 22.323311 -0.325006
                CHANNELS 3 Zrotation Xrotation Yrotation
                JOINT RightArm
                {
                    OFFSET -12.560579 0.000000 0.000000
                    CHANNELS 3 Zrotation Xrotation Yrotation
                    JOINT RightForeArm
                    {
                        OFFSET -28.806782 0.000000 0.000000
                        CHANNELS 3 Zrotation Xrotation Yrotation
                        JOINT RightHand
                        {
                            OFFSET -23.813900 0.000000 0.000000
                            CHANNELS 3 Zrotation Xrotation Yrotation
                            End Site
                            {
                                OFFSET -14.421371 0.000000 0.000000
                            }
                        }
                    }
                }
            }
        }
    }
    JOINT LeftUpLeg
    {
        OFFSET 9.614247 0.000000 0.000000
        CHANNELS 3 Zrotation Xrotation Yrotation
        JOINT LeftLeg
        {
            OFFSET -0.000000 -41.464203 0.000000
            CHANNELS 3 Zrotation Xrotation Yrotation
            JOINT LeftFoot
            {
                OFFSET -0.000000 -34.276012 0.000000
                CHANNELS 3 Zrotation Xrotation Yrotation
                JOINT LeftToeBase
                {
                    OFFSET -0.000000 -6.249260 14.421371
                    CHANNELS 3 Zrotation Xrotation Yrotation
                    End Site
                    {
                        OFFSET -0.000000 0.000000 3.845699
                    }
                }
            }
        }
    }
    JOINT RightUpLeg
    {
        OFFSET -9.614247 0.000000 0.000000
        CHANNELS 3 Zrotation Xrotation Yrotation
        JOINT RightLeg
        {
            OFFSET -0.000000 -41.464203 0.000000
            CHANNELS 3 Zrotation Xrotation Yrotation
            JOINT RightFoot
            {
                OFFSET -0.000000 -34.276012 0.000000
                CHANNELS 3 Zrotation Xrotation Yrotation
                JOINT RightToeBase
                {
                    OFFSET -0.000000 -6.249260 14.421371
                    CHANNELS 3 Zrotation Xrotation Yrotation
                    End Site
                    {
                        OFFSET -0.000000 0.000000 3.845699
                    }
                }
            }
        }
    }
}
MOTION
Frames:    13
Frame Time:    0.004000
-2.965071    81.558372    -74.615372    0.143335    -9.632124    10.492522    -1.279996    13.363702    0.445781    -0.697501    0.067456    0.296253    1.598645    9.179871    -12.716302    8.433719    13.595789    -13.173730    2.805503    8.146844    12.405531    -52.805458    51.075497    -2.560527    5.744502    -0.502292    -34.472347    -12.992971    2.797434    -13.261386    -3.038997    5.597803    5.051027    65.271645    40.397213    17.810200    -1.708133    -5.502082    89.392303    3.800240    -3.712692    3.087544    1.920781    19.529589    0.527793    -3.707237    10.646426    4.102396    2.771721    -17.303532    18.377035    0.000000    0.000000    0.000000    -7.630029    -32.790001    -9.368051    1.558872    61.458565    -1.740840    6.451765    -20.342377    -2.762865    0.000000    0.000000    0.000000    
-2.976872    81.485023    -74.356155    0.221062    -9.599078    10.508215    -1.284041    13.330596    0.406757    -0.708953    0.163621    0.257735    1.554923    9.122839    -12.697092    8.458972    13.572034    -13.149241    2.821440    8.174105    12.386623    -52.927452    51.081764    -2.764771    5.814636    -0.474309    -34.550354    -12.869223    2.840821    -13.295171    -3.099677    5.632660    4.992186    65.391907    40.429916    17.558990    -1.703787    -5.507333    89.014435    3.386928    -3.732162    3.501616    1.869760    19.601334    0.782350    -3.645205    10.871281    3.771909    2.726274    -17.529173    18.520052    0.000000    0.000000    0.000000    -7.729552    -32.791718    -9.329418    1.753869    60.573700    -2.144663    6.309203    -20.065628    -2.714387    0.000000    0.000000    0.000000    
-2.990194    81.410133    -74.094414    0.302901    -9.528164    10.541940    -1.271992    13.237153    0.369121    -0.788792    0.281115    0.223853    1.628129    9.128192    -12.706983    8.422026    13.424404    -13.153884    2.534325    8.452328    12.482450    -52.130817    51.255707    -3.604568    5.828497    -0.597684    -34.759747    -12.712843    2.725439    -13.386303    -3.070902    5.663694    4.966074    65.555367    40.258350    17.227356    -1.669871    -5.483171    88.742218    3.660741    -3.740866    3.494909    1.819101    19.721525    0.811394    -3.630668    10.952993    3.116235    2.876783    -17.719023    19.174164    0.000000    0.000000    0.000000    -7.853683    -32.810349    -9.332324    1.854093    59.690777    -2.491264    6.545739    -19.805815    -2.559944    0.000000    0.000000    0.000000    
-3.026210    81.320847    -73.836807    0.330730    -9.439878    10.596263    -1.242331    13.128173    0.323636    -0.819841    0.406967    0.183589    1.657277    9.046165    -12.695177    8.432087    13.401167    -13.142744    2.477555    8.490183    12.455818    -52.044067    51.161388    -3.964170    5.840566    -0.584162    -34.844254    -12.865399    2.767769    -13.405559    -3.067488    5.811507    4.833270    65.439064    39.968548    17.273148    -1.352704    -5.105854    88.304405    3.414658    -3.686305    3.618379    1.862824    19.825796    0.609610    -3.683245    10.911483    3.360207    2.897847    -17.902800    19.086855    0.000000    0.000000    0.000000    -7.918140    -32.850788    -9.285872    2.107909    58.765301    -3.021343    6.422283    -19.478273    -2.547762    0.000000    0.000000    0.000000    
-3.024125    81.246544    -73.555687    0.438228    -9.395883    10.595554    -1.225458    13.071823    0.287691    -0.962780    0.476868    0.151857    1.823918    9.120630    -12.685957    8.314279    13.213146    -13.131532    2.523767    8.520297    12.495206    -52.049408    51.196690    -4.287982    5.843880    -0.654359    -34.948174    -12.778068    2.711722    -13.560572    -2.952963    5.757270    4.889086    65.654617    39.806995    16.681356    -1.264485    -5.029156    88.091591    3.182699    -3.711348    3.455476    1.746320    20.012005    0.684393    -3.623469    10.896149    3.238675    2.866663    -18.020029    19.161459    0.000000    0.000000    0.000000    -8.035008    -32.807617    -9.313448    2.095051    57.813915    -3.309849    6.588166    -19.181032    -2.316691    0.000000    0.000000    0.000000    
-3.035194    81.162331    -73.283203    0.525804    -9.332030    10.641483    -1.204221    12.984201    0.233862    -1.039670    0.614685    0.102278    1.834908    9.047455    -12.681637    8.322578    13.146287    -13.123750    2.623393    8.139652    12.486286    -52.463650    51.465775    -4.072903    5.862817    -0.643319    -35.082169    -12.737239    2.735823    -13.600213    -2.934384    5.793088    4.821462    65.754280    39.781960    16.394262    -1.209916    -5.149991    87.786972    3.501746    -3.880065    3.508614    1.689467    20.135712    0.886909    -3.552308    10.926916    3.262245    2.738286    -18.181797    18.913746    0.000000    0.000000    0.000000    -8.169242    -32.784775    -9.321095    2.207463    56.890610    -3.627850    6.848370    -18.857208    -2.251092    0.000000    0.000000    0.000000    
-3.037023    81.079414    -73.028618    0.640631    -9.205539    10.700127    -1.195293    12.838439    0.170056    -1.150083    0.744189    0.044149    1.881140    8.981514    -12.657174    8.318233    13.115814    -13.100251    2.462591    8.426971    12.473771    -52.086975    51.211319    -4.735606    5.903860    -0.617056    -35.182190    -12.687572    2.786903    -13.708550    -2.934327    5.842399    4.817230    65.901794    39.548664    16.094484    -1.095255    -4.952207    87.377266    3.042482    -3.810169    3.637239    1.576795    20.242138    0.621316    -3.548090    10.804359    3.735718    2.640223    -18.271475    18.695602    0.000000    0.000000    0.000000    -8.357467    -32.811409    -9.364673    2.314325    55.954990    -4.009423    6.509038    -18.617460    -2.155408    0.000000    0.000000    0.000000    
-3.048367    80.992310    -72.746323    0.739026    -9.144171    10.748915    -1.218380    12.747903    0.136015    -1.162216    0.887726    -0.007462    1.884204    8.929977    -12.670280    8.311143    13.025319    -13.108417    2.382439    8.421921    12.493505    -51.970055    51.356220    -5.090586    5.919518    -0.686023    -35.360130    -12.614829    2.725579    -13.720174    -3.001003    5.956929    4.629661    65.951820    39.501736    15.979076    -0.951285    -4.945512    86.928429    3.074625    -3.941970    3.819357    1.522421    20.398758    0.684586    -3.518189    10.802792    3.658525    2.566847    -18.430014    18.687548    0.000000    0.000000    0.000000    -8.491095    -32.742069    -9.375520    2.372364    54.949665    -4.454214    6.197436    -18.434278    -1.860249    0.000000    0.000000    0.000000    
-3.060620    80.899887    -72.473000    0.819044    -9.012278    10.778341    -1.202604    12.602711    0.083255    -1.236054    0.987002    -0.039584    1.910462    8.873622    -12.658779    8.307558    12.981733    -13.096000    2.366145    8.385109    12.459467    -52.037590    51.420082    -5.302733    5.934568    -0.894116    -35.517792    -12.678908    2.557631    -13.883070    -3.015619    5.999799    4.603377    66.165657    39.407051    15.604325    -0.849816    -5.027157    86.494934    3.109320    -4.117642    4.076434    1.466511    20.476131    0.727348    -3.498027    10.812810    3.593363    2.548906    -18.603523    18.705851    0.000000    0.000000    0.000000    -8.611311    -32.759342    -9.388074    2.461461    53.961277    -4.847064    6.138114    -18.106577    -1.868339    0.000000    0.000000    0.000000    
-3.062845    80.809532    -72.193504    0.926933    -8.884328    10.862920    -1.147818    12.471634    -0.002489    -1.427209    1.042314    -0.114675    2.068423    8.915106    -12.630538    8.240452    12.840921    -13.067847    2.413565    8.391103    12.449375    -52.090549    51.485817    -5.542113    5.938623    -0.935642    -35.689388    -12.272246    2.484490    -13.950636    -2.913320    5.935521    4.689672    66.462364    39.244884    14.958301    -0.713056    -5.036404    86.137268    3.087359    -4.256013    4.231728    1.389184    20.563749    0.643028    -3.476104    10.802640    3.624427    2.569535    -18.693521    18.702118    0.000000    0.000000    0.000000    -8.813202    -32.730831    -9.494549    2.550289    52.998070    -5.046998    6.328061    -17.701742    -2.024094    0.000000    0.000000    0.000000    
-3.067118    80.710281    -71.933655    1.021134    -8.729038    10.906078    -1.116104    12.336076    -0.058604    -1.543948    1.109476    -0.164312    2.201082    8.878709    -12.634729    8.093214    12.730364    -13.077995    2.363962    8.413644    12.468265    -51.977318    51.603497    -5.923902    6.016424    -0.891415    -35.854568    -12.184198    2.546589    -13.896398    -2.927624    6.032078    4.631827    66.694748    39.357193    14.643445    -0.819185    -5.398649    85.646935    2.932508    -4.528488    4.370821    1.308421    20.594965    0.747704    -3.430636    10.854634    3.454149    2.564214    -18.893723    18.745771    0.000000    0.000000    0.000000    -8.966528    -32.770821    -9.541451    2.563443    52.050186    -5.316276    6.601414    -17.308832    -2.165215    0.000000    0.000000    0.000000    
-3.062727    80.610130    -71.657150    1.118347    -8.583766    10.950594    -1.057673    12.181283    -0.118982    -1.693943    1.224714    -0.213927    2.197659    8.768740    -12.637502    8.168664    12.732099    -13.080872    2.340885    8.282374    12.422286    -52.125099    51.648869    -5.998484    6.065191    -1.067723    -36.069557    -12.197610    2.416097    -14.039842    -2.898352    6.060564    4.550209    66.868553    39.246189    14.288945    -0.650119    -5.432567    85.178833    3.320799    -4.703309    4.559614    1.219429    20.678543    0.722717    -3.397591    10.836224    3.405581    2.706523    -18.948910    18.711691    0.000000    0.000000    0.000000    -9.142378    -32.776501    -9.616941    2.641274    51.040154    -5.949245    6.721612    -16.791536    -1.956885    0.000000    0.000000    0.000000    
-3.067547    80.507782    -71.388855    1.217875    -8.387839    10.991478    -1.032049    12.000738    -0.193405    -1.823593    1.301451    -0.281332    2.279809    8.700267    -12.606946    8.108927    12.647258    -13.051597    2.374183    8.200767    12.452634    -52.292332    51.707985    -6.165393    6.136361    -1.163951    -36.259911    -12.188212    2.373095    -14.223090    -2.910735    6.099426    4.508942    67.071075    39.169106    13.931800    -0.547762    -5.422782    84.694176    2.935406    -4.801161    4.779848    1.133177    20.687574    0.726424    -3.377903    10.857039    3.331621    2.568700    -19.205837    18.811613    0.000000    0.000000    0.000000    -9.294176    -32.831970    -9.724556    2.574483    50.047741    -6.219110    6.575552    -16.320555    -1.970494    0.000000    0.000000    0.000000    
